<svg height="574" width="720" xmlns="http://www.w3.org/2000/svg">
<rect height="574" fill="#555" width="720"></rect>
<text fill="#7f7" font-family="Courier New" font-size="12" xml:space="preserve">
<tspan x="10" y="26">6 megabytes installed</tspan>
<tspan x="10" y="42"></tspan>
<tspan x="10" y="58">node_modules</tspan>
<tspan x="10" y="74">├─┬ angular2-universal@2.1.0-rc.1 </tspan>
<tspan x="10" y="90">│ ├── angular2-platform-node@2.1.0-rc.1 </tspan>
<tspan x="10" y="106">│ ├─┬ css@2.2.1 </tspan>
<tspan x="10" y="122">│ │ ├── inherits@2.0.3 </tspan>
<tspan x="10" y="138">│ │ ├─┬ source-map@0.1.43 </tspan>
<tspan x="10" y="154">│ │ │ └── amdefine@1.0.1 </tspan>
<tspan x="10" y="170">│ │ ├─┬ source-map-resolve@0.3.1 </tspan>
<tspan x="10" y="186">│ │ │ ├── atob@1.1.3 </tspan>
<tspan x="10" y="202">│ │ │ ├── resolve-url@0.2.1 </tspan>
<tspan x="10" y="218">│ │ │ └── source-map-url@0.3.0 </tspan>
<tspan x="10" y="234">│ │ └── urix@0.1.0 </tspan>
<tspan x="10" y="250">│ ├─┬ js-beautify@1.6.12 </tspan>
<tspan x="10" y="266">│ │ ├─┬ config-chain@1.1.11 </tspan>
<tspan x="10" y="282">│ │ │ ├── ini@1.3.4 </tspan>
<tspan x="10" y="298">│ │ │ └── proto-list@1.2.4 </tspan>
<tspan x="10" y="314">│ │ ├─┬ editorconfig@0.13.2 </tspan>
<tspan x="10" y="330">│ │ │ ├── bluebird@3.5.0 </tspan>
<tspan x="10" y="346">│ │ │ ├─┬ commander@2.9.0 </tspan>
<tspan x="10" y="362">│ │ │ │ └── graceful-readlink@1.0.1 </tspan>
<tspan x="10" y="378">│ │ │ ├─┬ lru-cache@3.2.0 </tspan>
<tspan x="10" y="394">│ │ │ │ └── pseudomap@1.0.2 </tspan>
<tspan x="10" y="410">│ │ │ └── sigmund@1.0.1 </tspan>
<tspan x="10" y="426">│ │ ├─┬ mkdirp@0.5.1 </tspan>
<tspan x="10" y="442">│ │ │ └── minimist@0.0.8 </tspan>
<tspan x="10" y="458">│ │ └─┬ nopt@3.0.6 </tspan>
<tspan x="10" y="474">│ │   └── abbrev@1.1.0 </tspan>
<tspan x="10" y="490">│ ├── parse5@2.2.3 </tspan>
<tspan x="10" y="506">│ ├── preboot@4.5.2 </tspan>
<tspan x="10" y="522">│ └── xhr2@0.1.4 </tspan>
<tspan x="10" y="538">├── UNMET PEER DEPENDENCY rxjs@~5.0.0-beta.12</tspan>
<tspan x="10" y="554">└── UNMET PEER DEPENDENCY zone.js@~0.6.21</tspan>
</text>
</svg>
